<?xml version="1.0" encoding="UTF-8" standalone="no"?><!DOCTYPE svg PUBLIC "-//W3C//DTD SVG 1.1//EN" "http://www.w3.org/Graphics/SVG/1.1/DTD/svg11.dtd"><svg width="100%" height="100%" viewBox="0 0 600 600" version="1.1" xmlns="http://www.w3.org/2000/svg" xmlns:xlink="http://www.w3.org/1999/xlink" xml:space="preserve" xmlns:serif="http://www.serif.com/" style="fill-rule:evenodd;clip-rule:evenodd;stroke-linejoin:round;stroke-miterlimit:1.41421;"><rect id="Logo" x="0" y="0" width="600" height="600" style="fill:none;"/><g id="Checkers"><rect x="0" y="0" width="300" height="300" style="fill:#fff;"/><rect x="300" y="0" width="300" height="300" style="fill:#0081d5;"/><rect x="0" y="300" width="300" height="300" style="fill:#0081d5;"/><rect x="300" y="300" width="300" height="300" style="fill:#fff;"/></g><g id="Text"><path d="M102.014,146.288c0,0 0,84.294 0,117.291c0,7.192 -5.831,13.022 -13.022,13.022c-14.118,0 -36.517,0 -50.634,0c-7.192,0 -13.022,-5.83 -13.022,-13.022c0,-45.054 0,-194.01 0,-239.063c0,-7.192 5.83,-13.022 13.022,-13.022c12.597,0 31.136,0 40.639,0c3.87,0 7.539,1.721 10.013,4.697c19.8,23.815 108.163,130.097 108.163,130.097c0,0 0,-87.963 0,-121.772c0,-7.192 5.83,-13.022 13.022,-13.022c14.117,0 36.516,0 50.634,0c7.192,0 13.022,5.83 13.022,13.022c0,45.053 0,194.009 0,239.063c0,3.453 -1.372,6.766 -3.814,9.208c-2.442,2.442 -5.755,3.814 -9.208,3.814c-12.943,0 -32.221,0 -41.91,0c-3.817,0 -7.443,-1.676 -9.917,-4.583c-19.662,-23.107 -106.988,-125.73 -106.988,-125.73Z" style="fill:#0081d5;fill-rule:nonzero;"/><path d="M447.654,278.841c-21.234,0 -40.501,-3.858 -57.803,-11.575c-17.302,-7.717 -32.113,-17.86 -44.434,-30.431c-12.321,-12.571 -21.889,-26.947 -28.705,-43.127c-6.816,-16.18 -10.224,-32.858 -10.224,-50.034c0,-17.425 3.539,-34.228 10.617,-50.408c7.078,-16.18 16.974,-30.431 29.688,-42.753c12.714,-12.322 27.788,-22.155 45.221,-29.498c17.432,-7.343 36.504,-11.015 57.213,-11.015c21.234,0 40.502,3.858 57.804,11.575c17.301,7.717 32.113,17.923 44.433,30.618c12.321,12.695 21.824,27.133 28.509,43.313c6.685,16.181 10.027,32.734 10.027,49.661c0,17.425 -3.539,34.166 -10.617,50.221c-7.078,16.056 -16.908,30.245 -29.491,42.567c-12.584,12.322 -27.591,22.217 -45.024,29.684c-17.433,7.468 -36.504,11.202 -57.214,11.202Zm-63.308,-134.42c0,8.961 1.31,17.611 3.932,25.95c2.621,8.339 6.554,15.745 11.797,22.217c5.243,6.472 11.862,11.7 19.857,15.682c7.996,3.983 17.499,5.975 28.509,5.975c11.01,0 20.578,-2.054 28.705,-6.161c8.126,-4.108 14.746,-9.46 19.857,-16.056c5.112,-6.597 8.913,-14.127 11.404,-22.59c2.49,-8.464 3.735,-17.052 3.735,-25.764c0,-8.962 -1.31,-17.612 -3.932,-25.951c-2.621,-8.339 -6.619,-15.682 -11.993,-22.03c-5.374,-6.348 -12.059,-11.451 -20.054,-15.309c-7.996,-3.858 -17.368,-5.787 -28.116,-5.787c-11.01,0 -20.513,1.991 -28.508,5.974c-7.995,3.983 -14.615,9.272 -19.858,15.869c-5.243,6.596 -9.109,14.064 -11.6,22.403c-2.49,8.339 -3.735,16.865 -3.735,25.578Z" style="fill:#fff;fill-rule:nonzero;"/><path d="M151.166,590c-21.234,0 -40.502,-3.858 -57.803,-11.575c-17.302,-7.717 -32.113,-17.861 -44.434,-30.431c-12.321,-12.571 -21.889,-26.947 -28.705,-43.127c-6.816,-16.18 -10.224,-32.858 -10.224,-50.034c0,-17.425 3.539,-34.228 10.617,-50.408c7.078,-16.18 16.974,-30.431 29.688,-42.753c12.714,-12.322 27.788,-22.155 45.22,-29.498c17.433,-7.344 36.504,-11.015 57.214,-11.015c21.234,0 40.502,3.858 57.803,11.575c17.302,7.717 32.113,17.923 44.434,30.618c12.321,12.695 21.824,27.133 28.509,43.313c6.684,16.18 10.027,32.734 10.027,49.661c0,17.425 -3.539,34.165 -10.617,50.221c-7.078,16.056 -16.909,30.245 -29.492,42.567c-12.583,12.322 -27.591,22.216 -45.023,29.684c-17.433,7.468 -36.504,11.202 -57.214,11.202Zm-63.308,-134.421c0,8.962 1.31,17.612 3.932,25.951c2.621,8.339 6.554,15.745 11.796,22.217c5.243,6.472 11.863,11.699 19.858,15.682c7.996,3.983 17.498,5.974 28.509,5.974c11.01,0 20.578,-2.053 28.705,-6.161c8.126,-4.107 14.745,-9.459 19.857,-16.055c5.112,-6.597 8.913,-14.127 11.404,-22.59c2.49,-8.464 3.735,-17.052 3.735,-25.764c0,-8.962 -1.31,-17.612 -3.932,-25.951c-2.621,-8.339 -6.619,-15.682 -11.993,-22.03c-5.374,-6.348 -12.059,-11.451 -20.054,-15.309c-7.996,-3.858 -17.368,-5.788 -28.116,-5.788c-11.01,0 -20.513,1.992 -28.508,5.975c-7.996,3.982 -14.615,9.272 -19.858,15.869c-5.243,6.596 -9.109,14.064 -11.6,22.403c-2.49,8.339 -3.735,16.865 -3.735,25.577Z" style="fill:#fff;fill-rule:nonzero;"/><path d="M402.827,457.446c0,0 0,84.295 0,117.292c0,7.191 -5.83,13.022 -13.022,13.022c-14.117,0 -36.516,0 -50.634,0c-7.192,0 -13.022,-5.831 -13.022,-13.022c0,-45.054 0,-194.01 0,-239.064c0,-7.191 5.83,-13.022 13.022,-13.022c12.597,0 31.136,0 40.639,0c3.87,0 7.54,1.722 10.014,4.697c19.8,23.816 108.162,130.097 108.162,130.097c0,0 0,-87.962 0,-121.772c0,-7.191 5.831,-13.022 13.022,-13.022c14.118,0 36.517,0 50.634,0c7.192,0 13.022,5.831 13.022,13.022c0,45.054 0,194.01 0,239.064c0,3.453 -1.372,6.765 -3.814,9.208c-2.442,2.442 -5.754,3.814 -9.208,3.814c-12.942,0 -32.22,0 -41.909,0c-3.818,0 -7.443,-1.676 -9.918,-4.583c-19.662,-23.107 -106.988,-125.731 -106.988,-125.731Z" style="fill:#0081d5;fill-rule:nonzero;"/></g></svg>